<?xml version="1.0" encoding="UTF-8"?>
<svg width="125px" height="46px" viewBox="0 0 125 46" version="1.1" xmlns="http://www.w3.org/2000/svg" xmlns:xlink="http://www.w3.org/1999/xlink">
    <!-- Generator: Sketch 54.1 (76490) - https://sketchapp.com -->
    <title>Group 18</title>
    <desc>Created with Sketch.</desc>
    <defs>
        <polygon id="path-1" points="0 46 124.544979 46 124.544979 0 0 0"></polygon>
    </defs>
    <g id="Page-1" stroke="none" stroke-width="1" fill="none" fill-rule="evenodd">
        <g id="Homepage" transform="translate(-147.000000, -54.000000)">
            <g id="Group-18" transform="translate(147.000000, 54.000000)">
                <path d="M25.2467573,6.65782045 C20.8299163,2.24338864 15.0401674,0.0359113636 9.25146444,0.0359113636 L9.25146444,45.2539114 C15.0401674,45.2539114 20.8299163,43.0464341 25.2467573,38.6320023 C34.0809623,29.8020932 34.0809623,15.4877295 25.2467573,6.65782045" id="Fill-1" fill="#EE0033"></path>
                <path d="M17.8446653,24.1058818 C16.000523,20.3872 12.8519874,17.7819273 9.25104603,16.5759955 L0,45.2423591 C3.60041841,46.4477682 7.65271967,46.2543591 11.3033473,44.3756773 C18.6035565,40.6188364 21.5324268,31.5437682 17.8446653,24.1058818" id="Fill-3" fill="#000000"></path>
                <path d="M17.1242678,13.3312705 L17.1242678,13.3312705 C14.5688285,13.3312705 12.4976987,11.2607477 12.4976987,8.70670227 C12.4976987,6.89963409 13.551046,5.25879318 15.1943515,4.50449773 L25.8360879,0.000156818182 L21.3292887,10.6360886 C20.5745816,12.277975 18.9323222,13.3312705 17.1242678,13.3312705" id="Fill-5" fill="#000000"></path>
                <path d="M17.1,10.6298682 C16.0508368,10.6298682 15.2004184,9.77991364 15.2004184,8.73132273 C15.2004184,7.68273182 16.0508368,6.83277727 17.1,6.83277727 C18.1486402,6.83277727 18.9990586,7.68273182 18.9990586,8.73132273 C18.9990586,9.77991364 18.1486402,10.6298682 17.1,10.6298682" id="Fill-7" fill="#FFFFFF"></path>
                <path d="M49.542364,22.4534886 C50.9623431,22.4534886 52.0523013,22.2888295 52.8451883,21.8926023 C53.7369247,21.4305114 54.1987448,20.6380568 54.1987448,19.4828295 C54.1987448,18.3610568 53.8028243,17.6344659 52.8451883,17.1394432 C52.0193515,16.7102841 50.7311715,16.5121705 48.914749,16.5121705 L46.9006276,16.5121705 L46.9006276,22.4534886 L49.542364,22.4534886 Z M41.6495816,11.9241932 L49.1464435,11.9241932 C51.9864017,11.9241932 54.6616109,12.3204205 56.5768828,13.5085795 C58.3268828,14.5979432 59.4497908,16.3799205 59.4497908,19.1200568 C59.4497908,22.1895114 57.7656904,24.6980795 54.5951883,25.7210568 L61.332113,35.8211932 L55.2887029,35.8211932 L49.2452929,26.3812614 L46.9006276,26.3812614 L46.9006276,35.8211932 L41.6495816,35.8211932 L41.6495816,11.9241932 Z" id="Fill-9" fill="#000000"></path>
                <path d="M70.0475941,31.8605409 C72.3258368,31.8605409 74.0768828,30.0127 74.0768828,27.7017227 C74.0768828,25.3912682 72.3258368,23.5429045 70.0475941,23.5429045 C67.7688285,23.5429045 66.0183054,25.3912682 66.0183054,27.7017227 C66.0183054,30.0127 67.7688285,31.8605409 70.0475941,31.8605409 M70.0475941,19.2189045 C75.2327406,19.2189045 79.0962343,22.9156318 79.0962343,27.7017227 C79.0962343,32.4878136 75.2327406,36.1840182 70.0475941,36.1840182 C64.8624477,36.1840182 60.998431,32.4878136 60.998431,27.7017227 C60.998431,22.9156318 64.8624477,19.2189045 70.0475941,19.2189045" id="Fill-11" fill="#000000"></path>
                <path d="M89.040272,32.1249886 C91.7479079,32.1249886 93.1354603,30.0126477 93.1354603,27.6352841 C93.1354603,25.2589659 91.7149582,23.4106023 89.2379707,23.4106023 C88.1485356,23.4106023 87.1908996,23.773375 86.4644351,24.2030568 L86.4644351,31.4977159 C87.124477,31.8604886 88.1155858,32.1249886 89.040272,32.1249886 L89.040272,32.1249886 Z M81.4445607,10.6043068 L86.4644351,10.6043068 L86.4644351,20.3087386 L86.5303347,20.3411477 C87.5209205,19.6809432 88.9743724,19.219375 90.5261506,19.219375 C94.5554393,19.219375 98.1877615,22.3546932 98.1877615,27.4047614 C98.1877615,32.553625 94.4560669,36.1844886 89.4032427,36.1844886 C87.8185146,36.1844886 86.4973849,35.8211932 85.374477,35.3591023 L81.4445607,36.0193068 L81.4445607,10.6043068 Z" id="Fill-13" fill="#000000"></path>
                <mask id="mask-2" fill="white">
                    <use xlink:href="#path-1"></use>
                </mask>
                <g id="Clip-16"></g>
                <path d="M100.525628,35.8209318 L105.545502,35.8209318 L105.545502,19.5818864 L100.525628,19.5818864 L100.525628,35.8209318 Z M103.035565,11.5616818 C104.620816,11.5616818 105.941946,12.8486364 105.941946,14.4330227 C105.941946,16.0168864 104.620816,17.3043636 103.035565,17.3043636 C101.450314,17.3043636 100.129707,16.0168864 100.129707,14.4330227 C100.129707,12.8486364 101.450314,11.5616818 103.035565,11.5616818 L103.035565,11.5616818 Z" id="Fill-15" fill="#000000" mask="url(#mask-2)"></path>
                <path d="M108.825105,19.5820432 L113.779079,19.5820432 L113.779079,21.0676341 L113.844979,21.1000432 C115.099686,20.0770659 116.817259,19.2192705 118.864854,19.2192705 C120.581904,19.2192705 122.100732,19.8130886 123.124791,20.8695205 C124.115377,21.9254295 124.54477,23.3446341 124.54477,25.6885432 L124.54477,35.8210886 L119.524895,35.8210886 L119.524895,26.5134068 C119.524895,25.2923159 119.360146,24.697975 118.963703,24.2358841 C118.53431,23.7408614 117.940167,23.5427477 117.246653,23.5427477 C115.958473,23.5427477 114.736715,24.2029523 113.844979,24.8960886 L113.844979,35.8210886 L108.825105,35.8210886 L108.825105,19.5820432 Z" id="Fill-17" fill="#000000" mask="url(#mask-2)"></path>
            </g>
        </g>
    </g>
</svg>